<?xml version="1.0" standalone="no"?>
<!DOCTYPE svg PUBLIC "-//W3C//DTD SVG 20010904//EN"
 "http://www.w3.org/TR/2001/REC-SVG-20010904/DTD/svg10.dtd">
<svg version="1.0" xmlns="http://www.w3.org/2000/svg"
 width="484.000000pt" height="484.000000pt" viewBox="0 0 484.000000 484.000000"
 preserveAspectRatio="xMidYMid meet">
<metadata>
Created by potrace 1.11, written by Peter Selinger 2001-2013
</metadata>
<g transform="translate(0.000000,484.000000) scale(0.100000,-0.100000)"
fill="#000000" stroke="none">
<path d="M1295 4744 c-77 -47 -149 -89 -160 -94 -11 -5 -101 -58 -200 -118
l-180 -108 -3 -662 -2 -662 37 21 c49 28 204 117 223 129 8 5 49 28 90 52 41
23 91 51 111 63 194 111 239 138 241 144 0 3 2 302 3 664 1 469 -1 657 -9 656
-6 0 -74 -38 -151 -85z"/>
<path d="M1730 3468 c-371 -215 -700 -405 -730 -422 -31 -17 -99 -56 -153 -86
l-97 -55 0 -966 0 -967 78 -44 c83 -48 377 -218 637 -368 88 -51 180 -104 205
-118 36 -20 396 -228 580 -335 19 -11 54 -31 77 -43 23 -13 53 -30 67 -39 23
-16 28 -14 143 51 65 36 138 78 163 91 46 26 172 97 425 240 77 44 147 82 155
86 8 4 31 17 50 28 19 12 168 96 330 186 374 210 345 192 329 208 -8 7 -39 26
-69 42 -30 16 -102 58 -158 91 -57 34 -105 62 -106 62 -2 0 -63 35 -137 78
-74 43 -154 90 -179 104 l-45 25 -200 -113 c-110 -62 -217 -122 -238 -134 -85
-46 -403 -224 -419 -233 -18 -12 -26 -9 -120 45 -31 18 -101 58 -155 89 -486
279 -699 403 -703 410 -3 4 -5 256 -5 560 l0 552 335 194 c184 107 401 232
482 279 l147 84 197 -115 c108 -63 198 -115 201 -115 2 0 16 -8 31 -19 15 -10
122 -73 238 -140 l211 -122 74 44 c41 24 94 55 119 69 88 49 126 71 225 128
161 93 177 102 233 133 29 16 50 32 47 36 -2 5 -46 32 -97 62 -51 29 -376 217
-723 417 -346 201 -650 376 -675 390 -25 13 -49 28 -54 33 -6 5 -17 9 -25 8
-9 0 -320 -176 -691 -391z"/>
<path d="M3980 2743 c-93 -55 -185 -108 -460 -268 -74 -43 -137 -81 -140 -86
-9 -13 0 -939 9 -939 5 0 73 -37 152 -83 79 -46 225 -130 324 -187 99 -57 190
-110 203 -118 l22 -14 0 876 c0 482 -3 876 -7 875 -5 0 -51 -26 -103 -56z"/>
</g>
</svg>
