<svg xmlns="http://www.w3.org/2000/svg" width="546.444" height="266.405" viewBox="0 0 546.444 266.405">
  <g id="Group_1811" data-name="Group 1811" transform="translate(0 0)">
    <g id="Middel_2" data-name="Middel 2" transform="translate(0 0.159)">
      <path id="Path_6" data-name="Path 6" d="M687.652,346.417l-87.611,49.365L508,342.638V236.354l92.042-53.144,87.435,50.582-39.128,22.549-48.466-28.084L546.805,258.9V320.2l53.078,30.641,48.459-27.107Z" transform="translate(-508 -129.536)" fill="#0af167"/>
      <path id="Path_12" data-name="Path 12" d="M1.051,23.92,40,.857l0,73.5L1.049,96.816Z" transform="translate(-1.024 -0.857)" fill="#0af167"/>
      <path id="Path_15" data-name="Path 15" d="M829.98,297.21l-39.266,22.707-.039,51.455,39.3,22.645Z" transform="translate(-645.809 -185.113)" fill="#0af167"/>
    </g>
    <path id="Path_255" data-name="Path 255" d="M49.313,51.257h8.815l5.522-20,5.522,20h8.815l9.348-33.9H79.2L73.336,41.086,66.8,17.353H60.5L53.963,41.086,48.1,17.353H39.965Zm44.753-9.2H111.26a14.079,14.079,0,0,0,.291-2.906c0-7.314-5.231-12.787-12.3-12.787A12.417,12.417,0,0,0,86.365,39.148c0,7.217,5.134,12.787,13.416,12.787,4.6,0,8.185-1.7,10.559-4.989L104.528,43.6a6.324,6.324,0,0,1-4.65,1.84C97.214,45.445,94.986,44.573,94.066,42.055Zm-.145-5.425a5.455,5.455,0,0,1,10.413,0ZM130.15,26.362a9.1,9.1,0,0,0-7.217,2.954V17.353h-7.265v33.9h7.265V48.981a9.1,9.1,0,0,0,7.217,2.954c6.345,0,11.576-5.57,11.576-12.787S136.495,26.362,130.15,26.362Zm-1.453,18.7a5.53,5.53,0,0,1-5.764-5.909,5.765,5.765,0,1,1,11.527,0A5.53,5.53,0,0,1,128.7,45.057Zm29.061,6.732c6.732,0,11.14-3.681,11.14-9.3,0-5.861-5.231-7.749-11.237-9.735-4.843-1.6-8.282-2.858-8.282-6.926,0-3.778,2.954-6.539,7.653-6.539a8.912,8.912,0,0,1,8.718,5.861l2.18-1.211a11.383,11.383,0,0,0-10.9-7.12c-5.764,0-10.268,3.536-10.268,9.106,0,5.909,5.086,7.507,10.752,9.348,5.182,1.647,8.767,3.2,8.767,7.265,0,3.875-2.858,6.781-8.524,6.781-5.57,0-9.009-2.761-10.171-6.829L145.358,43.8C146.908,48.593,151.412,51.79,157.757,51.79Zm28.722,0A12.642,12.642,0,1,0,173.74,39.148,12.539,12.539,0,0,0,186.479,51.79Zm0-2.325A10.317,10.317,0,1,1,196.7,39.148,10.192,10.192,0,0,1,186.479,49.465Zm18.5,1.792H207.4V15.9h-2.422ZM232.3,27.04V39.827c0,6.539-3.729,9.638-8.476,9.638-4.553,0-7.12-2.906-7.12-7.362V27.04h-2.47V42.1c0,5.861,3.633,9.687,9.4,9.687a9.12,9.12,0,0,0,8.67-5.134v4.6h2.422V27.04Zm22.28,2.373V27.04h-7.217V20.259l-2.47.727V27.04h-5.328v2.373h5.328V45.154c0,5.522,3.342,7.071,9.687,6.1v-2.18c-4.94.436-7.217.339-7.217-3.923V29.413Zm7.023-8.234a1.913,1.913,0,1,0-1.937-1.937A1.943,1.943,0,0,0,261.6,21.179Zm-1.211,30.078h2.422V27.04h-2.422Zm20.972.533a12.642,12.642,0,1,0-12.738-12.641A12.539,12.539,0,0,0,281.361,51.79Zm0-2.325a10.317,10.317,0,1,1,10.22-10.317A10.192,10.192,0,0,1,281.361,49.465Zm29.593-22.958a9.12,9.12,0,0,0-8.67,5.134v-4.6h-2.422V51.257h2.422V38.47c0-6.539,3.729-9.638,8.476-9.638,4.553,0,7.12,2.906,7.12,7.362V51.257h2.47V36.194C320.351,30.333,316.719,26.507,310.955,26.507Zm17.872,6.878c0-2.906,2.664-4.553,5.812-4.553,2.664,0,5.182,1.162,6.2,3.681l2.034-1.162c-1.308-2.954-4.311-4.843-8.234-4.843-4.94,0-8.234,3.051-8.234,6.878,0,8.718,14.676,4.94,14.676,11.527,0,3.051-2.858,4.553-6.248,4.553-3.633,0-6.248-1.647-7.12-4.262l-2.083,1.211c1.162,3.1,4.359,5.376,9.2,5.376,5.182,0,8.67-2.906,8.67-6.878C343.5,36.049,328.827,39.875,328.827,33.385Z" transform="translate(156.028 214.47)" fill="#0af167"/>
    <g id="logo-text" transform="translate(196.011)">
      <path id="Path_253" data-name="Path 253" d="M141.3,88.721a27.414,27.414,0,0,0,9.543-21.433c0-18.93-15.488-31.289-34.574-31.289H73.4V145.51h45.994c19.555,0,35.356-12.672,35.356-32.071A28.277,28.277,0,0,0,141.3,88.721ZM116.266,59.467c5.788,0,9.543,4.068,9.543,9.7s-3.911,9.7-9.543,9.7H98.431v-19.4Zm3.129,62.577H98.431V101.08h20.963c6.258,0,10.325,4.38,10.325,10.482S125.652,122.044,119.394,122.044Zm72.9-.626v-19.4h39.111V78.24H192.3V60.092h43.022V36H167.266V145.51H236.1V121.418ZM323.709,36H242.359V60.092h28.16V145.51H295.55V60.092h28.16Zm72.746,109.51h27.378L386.6,36H354.685L317.452,145.51h27.378L350.3,128.3H390.98Zm-38.642-40.675,12.828-40.206,12.828,40.206Z" transform="translate(-73.4 -36)" fill="#0af167"/>
      <path id="Path_254" data-name="Path 254" d="M215.789,124.9c17.5,0,32.724-9.083,40.337-22.84l-6.278-3.606c-6.144,11.754-19.234,19.634-34.06,19.634-24.576,0-41.54-18.432-41.54-41.406s16.963-41.406,41.54-41.406c14.692,0,27.649,7.747,33.793,19.234l6.278-3.606c-7.747-13.624-22.84-22.439-40.07-22.439-28.45,0-48.619,21.5-48.619,48.218S187.339,124.9,215.789,124.9Zm99.909,0a48.218,48.218,0,1,0-48.218-48.218A47.943,47.943,0,0,0,315.7,124.9Zm0-6.812a40.961,40.961,0,0,1-41.139-41.406,41.14,41.14,0,1,1,82.278,0A40.961,40.961,0,0,1,315.7,118.084Zm125.153,5.343H449L425.757,84.158a27.566,27.566,0,0,0-7.079-54.229H381.813v93.5h7.079V85.093h29.518ZM388.892,36.608h29.786a20.906,20.906,0,0,1,0,41.807H388.892Zm81.877,80.141V79.616h42.742V72.938H470.77V36.608H516.85V29.929H463.69v93.5h53.828v-6.678Z" transform="translate(-167.085 93.225)" fill="#0af167"/>
    </g>
  </g>
</svg>
